<svg width="187" height="37" viewBox="0 0 187 37" fill="none" xmlns="http://www.w3.org/2000/svg">
<rect width="187" height="37" rx="9" fill="url(#paint0_linear_1_355)"/>
<path d="M39 20C38.7348 20 38.4804 20.1054 38.2929 20.2929C38.1054 20.4804 38 20.7348 38 21V25.213C37.9992 25.9519 37.7053 26.6603 37.1828 27.1828C36.6603 27.7053 35.9519 27.9992 35.213 28H22.787C22.0481 27.9992 21.3397 27.7053 20.8172 27.1828C20.2947 26.6603 20.0008 25.9519 20 25.213V21C20 20.7348 19.8946 20.4804 19.7071 20.2929C19.5196 20.1054 19.2652 20 19 20C18.7348 20 18.4804 20.1054 18.2929 20.2929C18.1054 20.4804 18 20.7348 18 21V25.213C18.0013 26.4822 18.5061 27.699 19.4035 28.5965C20.301 29.4939 21.5178 29.9987 22.787 30H35.213C36.4822 29.9987 37.699 29.4939 38.5965 28.5965C39.4939 27.699 39.9987 26.4822 40 25.213V21C40 20.7348 39.8946 20.4804 39.7071 20.2929C39.5196 20.1054 39.2652 20 39 20Z" fill="white"/>
<path d="M23.7069 15.707L27.9999 11.414V24C27.9999 24.2652 28.1053 24.5196 28.2928 24.7071C28.4803 24.8946 28.7347 25 28.9999 25C29.2651 25 29.5195 24.8946 29.707 24.7071C29.8946 24.5196 29.9999 24.2652 29.9999 24V11.414L34.2929 15.707C34.4815 15.8892 34.7341 15.9899 34.9963 15.9877C35.2585 15.9854 35.5093 15.8802 35.6947 15.6948C35.8801 15.5094 35.9853 15.2586 35.9876 14.9964C35.9899 14.7342 35.8891 14.4816 35.7069 14.293L29.7069 8.293C29.5194 8.10553 29.2651 8.00021 28.9999 8.00021C28.7348 8.00021 28.4804 8.10553 28.2929 8.293L22.2929 14.293C22.1108 14.4816 22.01 14.7342 22.0122 14.9964C22.0145 15.2586 22.1197 15.5094 22.3051 15.6948C22.4905 15.8802 22.7413 15.9854 23.0035 15.9877C23.2657 15.9899 23.5183 15.8892 23.7069 15.707Z" fill="white"/>
<path d="M61.53 24.14C60.1767 24.14 59.122 23.762 58.366 23.006C57.61 22.2407 57.232 21.1487 57.232 19.73V14.2H59.052V19.66C59.052 21.5827 59.8827 22.544 61.544 22.544C63.196 22.544 64.022 21.5827 64.022 19.66V14.2H65.814V19.73C65.814 21.1487 65.436 22.2407 64.68 23.006C63.9333 23.762 62.8833 24.14 61.53 24.14ZM72.3389 16.44C73.0669 16.44 73.7155 16.5987 74.2849 16.916C74.8635 17.2333 75.3162 17.6813 75.6429 18.26C75.9695 18.8387 76.1329 19.506 76.1329 20.262C76.1329 21.018 75.9695 21.69 75.6429 22.278C75.3162 22.8567 74.8635 23.3047 74.2849 23.622C73.7155 23.9393 73.0669 24.098 72.3389 24.098C71.3309 24.098 70.5329 23.762 69.9449 23.09V26.716H68.1949V16.524H69.8609V17.504C70.1502 17.1493 70.5049 16.8833 70.9249 16.706C71.3542 16.5287 71.8255 16.44 72.3389 16.44ZM72.1429 22.6C72.7869 22.6 73.3142 22.3853 73.7249 21.956C74.1449 21.5267 74.3549 20.962 74.3549 20.262C74.3549 19.562 74.1449 18.9973 73.7249 18.568C73.3142 18.1387 72.7869 17.924 72.1429 17.924C71.7229 17.924 71.3449 18.022 71.0089 18.218C70.6729 18.4047 70.4069 18.6753 70.2109 19.03C70.0149 19.3847 69.9169 19.7953 69.9169 20.262C69.9169 20.7287 70.0149 21.1393 70.2109 21.494C70.4069 21.8487 70.6729 22.124 71.0089 22.32C71.3449 22.5067 71.7229 22.6 72.1429 22.6ZM77.7925 13.612H79.5425V24H77.7925V13.612ZM85.1994 24.098C84.4434 24.098 83.7621 23.9347 83.1554 23.608C82.5487 23.2813 82.0727 22.8287 81.7274 22.25C81.3914 21.662 81.2234 20.9993 81.2234 20.262C81.2234 19.5247 81.3914 18.8667 81.7274 18.288C82.0727 17.7093 82.5487 17.2567 83.1554 16.93C83.7621 16.6033 84.4434 16.44 85.1994 16.44C85.9647 16.44 86.6507 16.6033 87.2574 16.93C87.8641 17.2567 88.3354 17.7093 88.6714 18.288C89.0167 18.8667 89.1894 19.5247 89.1894 20.262C89.1894 20.9993 89.0167 21.662 88.6714 22.25C88.3354 22.8287 87.8641 23.2813 87.2574 23.608C86.6507 23.9347 85.9647 24.098 85.1994 24.098ZM85.1994 22.6C85.8434 22.6 86.3754 22.3853 86.7954 21.956C87.2154 21.5267 87.4254 20.962 87.4254 20.262C87.4254 19.562 87.2154 18.9973 86.7954 18.568C86.3754 18.1387 85.8434 17.924 85.1994 17.924C84.5554 17.924 84.0234 18.1387 83.6034 18.568C83.1927 18.9973 82.9874 19.562 82.9874 20.262C82.9874 20.962 83.1927 21.5267 83.6034 21.956C84.0234 22.3853 84.5554 22.6 85.1994 22.6ZM93.6231 16.44C94.7245 16.44 95.5645 16.706 96.1431 17.238C96.7311 17.7607 97.0251 18.554 97.0251 19.618V24H95.3731V23.09C95.1585 23.4167 94.8505 23.6687 94.4491 23.846C94.0571 24.014 93.5811 24.098 93.0211 24.098C92.4611 24.098 91.9711 24.0047 91.5511 23.818C91.1311 23.622 90.8045 23.356 90.5711 23.02C90.3471 22.6747 90.2351 22.2873 90.2351 21.858C90.2351 21.186 90.4825 20.6493 90.9771 20.248C91.4811 19.8373 92.2698 19.632 93.3431 19.632H95.2751V19.52C95.2751 18.9973 95.1165 18.596 94.7991 18.316C94.4911 18.036 94.0291 17.896 93.4131 17.896C92.9931 17.896 92.5778 17.9613 92.1671 18.092C91.7658 18.2227 91.4251 18.4047 91.1451 18.638L90.4591 17.364C90.8511 17.0653 91.3225 16.8367 91.8731 16.678C92.4238 16.5193 93.0071 16.44 93.6231 16.44ZM93.3851 22.824C93.8238 22.824 94.2111 22.726 94.5471 22.53C94.8925 22.3247 95.1351 22.0353 95.2751 21.662V20.794H93.4691C92.4611 20.794 91.9571 21.1253 91.9571 21.788C91.9571 22.1053 92.0831 22.3573 92.3351 22.544C92.5871 22.7307 92.9371 22.824 93.3851 22.824ZM106.661 13.612V24H104.981V23.034C104.692 23.3887 104.333 23.6547 103.903 23.832C103.483 24.0093 103.017 24.098 102.503 24.098C101.785 24.098 101.136 23.9393 100.557 23.622C99.9881 23.3047 99.5401 22.8567 99.2134 22.278C98.8867 21.69 98.7234 21.018 98.7234 20.262C98.7234 19.506 98.8867 18.8387 99.2134 18.26C99.5401 17.6813 99.9881 17.2333 100.557 16.916C101.136 16.5987 101.785 16.44 102.503 16.44C102.998 16.44 103.451 16.524 103.861 16.692C104.272 16.86 104.622 17.112 104.911 17.448V13.612H106.661ZM102.713 22.6C103.133 22.6 103.511 22.5067 103.847 22.32C104.183 22.124 104.449 21.8487 104.645 21.494C104.841 21.1393 104.939 20.7287 104.939 20.262C104.939 19.7953 104.841 19.3847 104.645 19.03C104.449 18.6753 104.183 18.4047 103.847 18.218C103.511 18.022 103.133 17.924 102.713 17.924C102.293 17.924 101.915 18.022 101.579 18.218C101.243 18.4047 100.977 18.6753 100.781 19.03C100.585 19.3847 100.487 19.7953 100.487 20.262C100.487 20.7287 100.585 21.1393 100.781 21.494C100.977 21.8487 101.243 22.124 101.579 22.32C101.915 22.5067 102.293 22.6 102.713 22.6ZM112.988 14.2H114.808V24H112.988V14.2ZM126.727 16.44C127.669 16.44 128.416 16.7153 128.967 17.266C129.517 17.8073 129.793 18.624 129.793 19.716V24H128.043V19.94C128.043 19.2867 127.898 18.7967 127.609 18.47C127.319 18.134 126.904 17.966 126.363 17.966C125.775 17.966 125.303 18.162 124.949 18.554C124.594 18.9367 124.417 19.4873 124.417 20.206V24H122.667V19.94C122.667 19.2867 122.522 18.7967 122.233 18.47C121.943 18.134 121.528 17.966 120.987 17.966C120.389 17.966 119.913 18.1573 119.559 18.54C119.213 18.9227 119.041 19.478 119.041 20.206V24H117.291V16.524H118.957V17.476C119.237 17.14 119.587 16.8833 120.007 16.706C120.427 16.5287 120.893 16.44 121.407 16.44C121.967 16.44 122.461 16.5473 122.891 16.762C123.329 16.9673 123.675 17.2753 123.927 17.686C124.235 17.294 124.631 16.9907 125.117 16.776C125.602 16.552 126.139 16.44 126.727 16.44ZM134.885 16.44C135.986 16.44 136.826 16.706 137.405 17.238C137.993 17.7607 138.287 18.554 138.287 19.618V24H136.635V23.09C136.42 23.4167 136.112 23.6687 135.711 23.846C135.319 24.014 134.843 24.098 134.283 24.098C133.723 24.098 133.233 24.0047 132.813 23.818C132.393 23.622 132.066 23.356 131.833 23.02C131.609 22.6747 131.497 22.2873 131.497 21.858C131.497 21.186 131.744 20.6493 132.239 20.248C132.743 19.8373 133.532 19.632 134.605 19.632H136.537V19.52C136.537 18.9973 136.378 18.596 136.061 18.316C135.753 18.036 135.291 17.896 134.675 17.896C134.255 17.896 133.84 17.9613 133.429 18.092C133.028 18.2227 132.687 18.4047 132.407 18.638L131.721 17.364C132.113 17.0653 132.584 16.8367 133.135 16.678C133.686 16.5193 134.269 16.44 134.885 16.44ZM134.647 22.824C135.086 22.824 135.473 22.726 135.809 22.53C136.154 22.3247 136.397 22.0353 136.537 21.662V20.794H134.731C133.723 20.794 133.219 21.1253 133.219 21.788C133.219 22.1053 133.345 22.3573 133.597 22.544C133.849 22.7307 134.199 22.824 134.647 22.824ZM148.021 16.524V22.866C148.021 25.498 146.677 26.814 143.989 26.814C143.27 26.814 142.589 26.7207 141.945 26.534C141.301 26.3567 140.769 26.0953 140.349 25.75L141.133 24.434C141.46 24.7047 141.87 24.9193 142.365 25.078C142.869 25.246 143.378 25.33 143.891 25.33C144.712 25.33 145.314 25.1433 145.697 24.77C146.08 24.3967 146.271 23.8273 146.271 23.062V22.67C145.972 22.9967 145.608 23.244 145.179 23.412C144.75 23.58 144.278 23.664 143.765 23.664C143.056 23.664 142.412 23.5147 141.833 23.216C141.264 22.908 140.811 22.4787 140.475 21.928C140.148 21.3773 139.985 20.7473 139.985 20.038C139.985 19.3287 140.148 18.7033 140.475 18.162C140.811 17.6113 141.264 17.1867 141.833 16.888C142.412 16.5893 143.056 16.44 143.765 16.44C144.306 16.44 144.796 16.5287 145.235 16.706C145.683 16.8833 146.056 17.154 146.355 17.518V16.524H148.021ZM144.031 22.18C144.694 22.18 145.235 21.984 145.655 21.592C146.084 21.1907 146.299 20.6727 146.299 20.038C146.299 19.4127 146.084 18.904 145.655 18.512C145.235 18.12 144.694 17.924 144.031 17.924C143.359 17.924 142.808 18.12 142.379 18.512C141.959 18.904 141.749 19.4127 141.749 20.038C141.749 20.6727 141.959 21.1907 142.379 21.592C142.808 21.984 143.359 22.18 144.031 22.18ZM157.35 20.304C157.35 20.4253 157.34 20.598 157.322 20.822H151.456C151.558 21.3727 151.824 21.8113 152.254 22.138C152.692 22.4553 153.234 22.614 153.878 22.614C154.699 22.614 155.376 22.3433 155.908 21.802L156.846 22.88C156.51 23.2813 156.085 23.5847 155.572 23.79C155.058 23.9953 154.48 24.098 153.836 24.098C153.014 24.098 152.291 23.9347 151.666 23.608C151.04 23.2813 150.555 22.8287 150.21 22.25C149.874 21.662 149.706 20.9993 149.706 20.262C149.706 19.534 149.869 18.8807 150.196 18.302C150.532 17.714 150.994 17.2567 151.582 16.93C152.17 16.6033 152.832 16.44 153.57 16.44C154.298 16.44 154.946 16.6033 155.516 16.93C156.094 17.2473 156.542 17.7 156.86 18.288C157.186 18.8667 157.35 19.5387 157.35 20.304ZM153.57 17.84C153.01 17.84 152.534 18.008 152.142 18.344C151.759 18.6707 151.526 19.1093 151.442 19.66H155.684C155.609 19.1187 155.38 18.68 154.998 18.344C154.615 18.008 154.139 17.84 153.57 17.84Z" fill="white"/>
<defs>
<linearGradient id="paint0_linear_1_355" x1="-6.20435e-07" y1="18.5" x2="187" y2="18.5" gradientUnits="userSpaceOnUse">
<stop stop-color="#FFB763"/>
<stop offset="1" stop-color="#FF5757"/>
</linearGradient>
</defs>
</svg>
